<svg width="24.010986" height="23.000000" viewBox="0 0 24.011 23" fill="none" xmlns="http://www.w3.org/2000/svg" xmlns:xlink="http://www.w3.org/1999/xlink">
	<desc>
			Created with Pixso.
	</desc>
	<defs/>
	<path id="Vector" d="M9 22C8.44775 22 8 21.5523 8 21C8 20.4477 8.44775 20 9 20C9.55225 20 10 20.4477 10 21C10 21.5523 9.55225 22 9 22Z" stroke="#454545" stroke-opacity="1.000000" stroke-width="2.000000" stroke-linejoin="round"/>
	<path id="Vector" d="M19 22C18.4478 22 18 21.5523 18 21C18 20.4477 18.4478 20 19 20C19.5522 20 20 20.4477 20 21C20 21.5523 19.5522 22 19 22Z" stroke="#454545" stroke-opacity="1.000000" stroke-width="2.000000" stroke-linejoin="round"/>
	<path id="Vector" d="M1 1L5 1L7.67993 15.2823C7.77148 15.7734 8.02197 16.2145 8.38745 16.5285C8.75317 16.8424 9.21069 17.0092 9.67993 16.9996L19.3999 16.9996C19.8694 17.0092 20.3269 16.8424 20.6924 16.5285C21.0581 16.2145 21.3086 15.7734 21.3999 15.2823L23 6.33319L6 6.33319" stroke="#454545" stroke-opacity="1.000000" stroke-width="2.000000" stroke-linejoin="round" stroke-linecap="round"/>
</svg>
