<svg width="22.000000" height="24.000000" viewBox="0 0 22 24" fill="none" xmlns="http://www.w3.org/2000/svg" xmlns:xlink="http://www.w3.org/1999/xlink">
	<desc>
			Created with Pixso.
	</desc>
	<defs/>
	<path id="Vector" d="M21 23L21 20.6667C21 19.429 20.4731 18.242 19.5356 17.3668C18.5979 16.4917 17.3262 16 16 16L6 16C4.67383 16 3.4021 16.4917 2.46436 17.3668C1.52686 18.242 1 19.429 1 20.6667L1 23" stroke="#454545" stroke-opacity="1.000000" stroke-width="2.000000" stroke-linejoin="round" stroke-linecap="round"/>
	<path id="Vector" d="M10.5 11C7.73853 11 5.5 8.76141 5.5 6C5.5 3.23859 7.73853 1 10.5 1C13.2615 1 15.5 3.23859 15.5 6C15.5 8.76141 13.2615 11 10.5 11Z" stroke="#454545" stroke-opacity="1.000000" stroke-width="2.000000" stroke-linejoin="round"/>
</svg>
