<svg xmlns="http://www.w3.org/2000/svg" version="1.1" xmlns:xlink="http://www.w3.org/1999/xlink" xmlns:svgjs="http://svgjs.dev/svgjs" width="2000" height="2024" viewBox="0 0 2000 2024"><g transform="matrix(1,0,0,1,1.767868852458946,0.8194331983804659)"><svg viewBox="0 0 244 247" data-background-color="#ffffff" preserveAspectRatio="xMidYMid meet" height="2024" width="2000" xmlns="http://www.w3.org/2000/svg" xmlns:xlink="http://www.w3.org/1999/xlink"><g id="tight-bounds" transform="matrix(1,0,0,1,-0.21567999999999188,-0.09999999999999432)"><svg viewBox="0 0 244.43135999999998 247.2" height="247.2" width="244.43135999999998"><g><svg></svg></g><g><svg viewBox="0 0 244.43135999999998 247.2" height="247.2" width="244.43135999999998"><g transform="matrix(1,0,0,1,0,104.22516098738343)"><svg viewBox="0 0 244.43135999999998 38.74967802523313" height="38.74967802523313" width="244.43135999999998"><g><svg viewBox="0 0 244.43135999999998 38.74967802523313" height="38.74967802523313" width="244.43135999999998"><g><svg viewBox="0 0 244.43135999999998 38.74967802523313" height="38.74967802523313" width="244.43135999999998"><g><svg viewBox="0 0 244.43135999999998 38.74967802523313" height="38.74967802523313" width="244.43135999999998"><g id="textblocktransform"><svg viewBox="0 0 244.43135999999998 38.74967802523313" height="38.74967802523313" width="244.43135999999998" id="textblock"><g><svg viewBox="0 0 244.43135999999998 38.74967802523313" height="38.74967802523313" width="244.43135999999998"><g transform="matrix(1,0,0,1,0,0)"><svg width="244.43135999999998" viewBox="2.6 -42.55 273.42999999999995 43.349999999999994" height="38.74967802523313" data-palette-color="#8579d7"><path d="M8.2 0L2.6 0 12.85-40 22.15-40 32.4 0 26.45 0 17.6-35.75 17.1-35.75 8.2 0ZM26.15-13.55L8.85-13.55 8.85-18.95 26.15-18.95 26.15-13.55ZM66.65-15L38.35-15 38.35-20 66.65-20 66.65-15ZM73.8 0L73.8-30 79.3-30 79.3-27.6 83.25-27.6 80.3-25.85Q80.45-28.15 81.72-29.48 83-30.8 85.05-30.8L85.05-30.8Q87-30.8 88.3-29.3 89.59-27.8 89.9-25.25L89.9-25.25 86.8-27.35 93.25-27.35 90.45-25.75Q90.59-28.05 92.02-29.43 93.45-30.8 95.65-30.8L95.65-30.8Q98.25-30.8 99.82-28.63 101.4-26.45 101.4-22.8L101.4-22.8 101.4 0 96.15 0 96.15-20.65Q96.15-22.7 95.4-23.73 94.65-24.75 93.15-24.75L93.15-24.75Q91.7-24.75 90.95-23.73 90.2-22.7 90.2-20.65L90.2-20.65 90.2 0 85 0 85-20.65Q85-22.7 84.25-23.73 83.5-24.75 82.05-24.75L82.05-24.75Q80.55-24.75 79.8-23.73 79.05-22.7 79.05-20.65L79.05-20.65 79.05 0 73.8 0ZM122.49 0.8L122.49 0.8Q118.34 0.8 115.29-1.13 112.24-3.05 110.57-6.6 108.89-10.15 108.89-15L108.89-15Q108.89-19.85 110.57-23.4 112.24-26.95 115.29-28.88 118.34-30.8 122.49-30.8L122.49-30.8Q126.69-30.8 129.72-28.88 132.74-26.95 134.42-23.4 136.09-19.85 136.09-15L136.09-15Q136.09-10.15 134.42-6.6 132.74-3.05 129.72-1.13 126.69 0.8 122.49 0.8ZM122.49-4.35L122.49-4.35Q126.34-4.35 128.49-7.15 130.64-9.95 130.64-15L130.64-15Q130.64-20.05 128.49-22.85 126.34-25.65 122.49-25.65L122.49-25.65Q118.64-25.65 116.49-22.85 114.34-20.05 114.34-15L114.34-15Q114.34-9.95 116.49-7.15 118.64-4.35 122.49-4.35ZM159.59 0.8L159.59 0.8Q157.19 0.8 155.19-0.18 153.19-1.15 152.19-2.75L152.19-2.75 150.69-2.75 150.69 0 145.19 0 145.19-42.4 150.69-42.4 150.69-27.25 152.19-27.25Q153.19-28.9 155.19-29.85 157.19-30.8 159.59-30.8L159.59-30.8Q163.34-30.8 166.09-28.88 168.84-26.95 170.34-23.4 171.84-19.85 171.84-15L171.84-15Q171.84-10.15 170.34-6.6 168.84-3.05 166.09-1.13 163.34 0.8 159.59 0.8ZM158.44-4.35L158.44-4.35Q162.19-4.35 164.27-7.15 166.34-9.95 166.34-15L166.34-15Q166.34-20.05 164.27-22.85 162.19-25.65 158.44-25.65L158.44-25.65Q154.64-25.65 152.56-22.85 150.49-20.05 150.49-15L150.49-15Q150.49-9.95 152.56-7.15 154.64-4.35 158.44-4.35ZM182.24-24.85L182.24-30 196.84-30 196.84-5.15 205.89-5.15 205.89 0 182.24 0 182.24-5.15 191.34-5.15 191.34-24.85 182.24-24.85ZM193.69-34.45L193.69-34.45Q191.74-34.45 190.64-35.52 189.54-36.6 189.54-38.5L189.54-38.5Q189.54-40.4 190.64-41.48 191.74-42.55 193.69-42.55L193.69-42.55Q195.64-42.55 196.74-41.48 197.84-40.4 197.84-38.5L197.84-38.5Q197.84-36.6 196.74-35.52 195.64-34.45 193.69-34.45ZM216.49-37.25L216.49-42.4 231.09-42.4 231.09-5.15 240.14-5.15 240.14 0 216.49 0 216.49-5.15 225.59-5.15 225.59-37.25 216.49-37.25ZM253.93-13.2L253.93-18.05 271.98-18.05 270.13-15.45Q270.13-20.5 268.33-23.15 266.53-25.8 263.08-25.8L263.08-25.8Q259.33-25.8 257.23-23.03 255.13-20.25 255.13-15.25L255.13-15.25Q255.13-9.9 257.23-7.05 259.33-4.2 263.23-4.2L263.23-4.2Q265.78-4.2 267.68-5.48 269.58-6.75 270.88-9.2L270.88-9.2 276.03-9.2Q275.28-6.1 273.51-3.85 271.73-1.6 269.11-0.4 266.48 0.8 263.23 0.8L263.23 0.8Q259.03 0.8 256.01-1.1 252.98-3 251.38-6.6 249.78-10.2 249.78-15.25L249.78-15.25Q249.78-20.05 251.41-23.53 253.03-27 256.03-28.9 259.03-30.8 263.08-30.8L263.08-30.8Q266.93-30.8 269.63-29 272.33-27.2 273.78-23.78 275.23-20.35 275.23-15.5L275.23-15.5Q275.23-14.95 275.21-14.35 275.18-13.75 275.13-13.2L275.13-13.2 253.93-13.2Z" opacity="1" transform="matrix(1,0,0,1,0,0)" fill="#8579d7" class="wordmark-text-0" data-fill-palette-color="primary" id="text-0"></path></svg></g></svg></g></svg></g></svg></g><g></g></svg></g></svg></g></svg></g><path d="M0 98.225L0 1 244.431 1 244.431 98.225 240.937 98.225 240.937 4.494 3.494 4.494 3.494 98.225 0 98.225M0 148.975L0 246.2 244.431 246.2 244.431 148.975 240.937 148.975 240.937 242.706 3.494 242.706 3.494 148.975 0 148.975" fill="#70417c" stroke="transparent" data-fill-palette-color="tertiary"></path></svg></g><defs></defs></svg><rect width="244.43135999999998" height="247.2" fill="none" stroke="none" visibility="hidden"></rect></g></svg></g></svg>